<?xml version="1.0" encoding="UTF-8" standalone="no"?>
<svg
   xmlns:dc="http://purl.org/dc/elements/1.1/"
   xmlns:cc="http://creativecommons.org/ns#"
   xmlns:rdf="http://www.w3.org/1999/02/22-rdf-syntax-ns#"
   xmlns:svg="http://www.w3.org/2000/svg"
   xmlns="http://www.w3.org/2000/svg"
   xmlns:sodipodi="http://sodipodi.sourceforge.net/DTD/sodipodi-0.dtd"
   xmlns:inkscape="http://www.inkscape.org/namespaces/inkscape"
   fill="#000000"
   viewBox="0 0 128 128"
   width="64px"
   height="64px"
   version="1.1"
   id="svg4"
   sodipodi:docname="external_link_icon.svg"
   inkscape:version="1.0 (4035a4fb49, 2020-05-01)">
  <metadata
     id="metadata10">
    <rdf:RDF>
      <cc:Work
         rdf:about="">
        <dc:format>image/svg+xml</dc:format>
        <dc:type
           rdf:resource="http://purl.org/dc/dcmitype/StillImage" />
      </cc:Work>
    </rdf:RDF>
  </metadata>
  <defs
     id="defs8" />
  <sodipodi:namedview
     inkscape:document-rotation="0"
     pagecolor="#ffffff"
     bordercolor="#666666"
     borderopacity="1"
     objecttolerance="10"
     gridtolerance="10"
     guidetolerance="10"
     inkscape:pageopacity="0"
     inkscape:pageshadow="2"
     inkscape:window-width="1920"
     inkscape:window-height="1057"
     id="namedview6"
     showgrid="false"
     inkscape:zoom="6.953125"
     inkscape:cx="28.194627"
     inkscape:cy="37.04066"
     inkscape:window-x="-8"
     inkscape:window-y="-8"
     inkscape:window-maximized="1"
     inkscape:current-layer="svg4" />
  <path
     inkscape:export-ydpi="180"
     inkscape:export-xdpi="180"
     d="M 84 11 C 82.3 11 81 12.3 81 14 C 81 15.7 82.3 17 84 17 L 106.80078 17 L 60.400391 63.400391 C 59.200391 64.600391 59.200391 66.499609 60.400391 67.599609 C 61.000391 68.199609 61.8 68.5 62.5 68.5 C 63.2 68.5 63.999609 68.199609 64.599609 67.599609 L 111 21.199219 L 111 44 C 111 45.7 112.3 47 114 47 C 115.7 47 117 45.7 117 44 L 117 14 C 117 12.3 115.7 11 114 11 L 84 11 z M 24 31 C 16.8 31 11 36.8 11 44 L 11 104 C 11 111.2 16.8 117 24 117 L 84 117 C 91.2 117 97 111.2 97 104 L 97 59 C 97 57.3 95.7 56 94 56 C 92.3 56 91 57.3 91 59 L 91 104 C 91 107.9 87.9 111 84 111 L 24 111 C 20.1 111 17 107.9 17 104 L 17 44 C 17 40.1 20.1 37 24 37 L 69 37 C 70.7 37 72 35.7 72 34 C 72 32.3 70.7 31 69 31 L 24 31 z"
     id="path2"
     style="stroke:#4c2886;stroke-opacity:1;fill:#4c2886;fill-opacity:1" />
</svg>
